<?xml version="1.0" standalone="no"?>
<!DOCTYPE svg PUBLIC "-//W3C//DTD SVG 20010904//EN"
 "http://www.w3.org/TR/2001/REC-SVG-20010904/DTD/svg10.dtd">
<svg version="1.0" xmlns="http://www.w3.org/2000/svg"
 width="728.000000pt" height="410.000000pt" viewBox="0 0 728.000000 410.000000"
 preserveAspectRatio="xMidYMid meet">

<g transform="translate(0.000000,410.000000) scale(0.100000,-0.100000)"
fill="#000000" stroke="none">
<path d="M3069 4061 c-18 -32 -33 -43 -78 -60 -154 -56 -407 -350 -570 -661
-305 -586 -448 -1448 -321 -1943 20 -77 78 -207 106 -238 22 -24 18 -47 -32
-185 -138 -385 -212 -707 -214 -931 l0 -43 65 0 c63 0 65 1 65 25 0 31 17 33
22 3 3 -21 9 -23 81 -26 71 -3 80 -1 96 19 l18 23 12 -22 12 -22 1603 0 1604
0 4 97 c5 89 31 203 47 203 24 0 18 234 -8 333 -25 91 -26 127 -6 193 20 68
19 79 -14 116 l-30 33 -30 -29 c-40 -38 -48 -30 -65 65 -8 44 -14 61 -15 42
-2 -48 19 -133 32 -133 14 -1 -31 -40 -45 -40 -5 0 -8 12 -6 27 3 28 -12 41
-73 63 -22 7 -34 26 -63 103 -43 110 -89 267 -113 383 -16 78 -16 86 1 158
l17 75 55 20 c160 61 267 51 364 -32 l25 -22 -25 28 c-51 59 -148 90 -231 75
-64 -11 -149 -37 -166 -51 -17 -13 -17 11 1 65 19 56 73 367 86 488 5 52 13
176 16 275 l7 180 31 1 c17 0 38 4 47 8 14 6 17 -6 23 -89 3 -54 15 -116 25
-142 16 -40 24 -49 52 -55 31 -7 57 -5 100 8 13 4 19 -8 29 -58 l12 -63 29 33
c21 24 29 43 29 70 0 55 -35 181 -85 306 -39 96 -42 110 -29 123 8 9 16 14 18
12 14 -16 90 -240 119 -349 64 -238 70 -279 64 -440 -6 -134 -18 -212 -49
-315 -14 -47 -51 -110 -72 -122 -12 -7 -12 -11 4 -31 l18 -22 37 42 c79 93
132 215 159 372 9 49 17 91 19 93 10 9 62 -393 76 -590 6 -77 9 -173 6 -215
l-4 -77 9 70 c11 82 32 142 72 207 33 53 70 71 128 62 25 -4 40 -2 45 6 6 9 4
11 -5 5 -10 -6 -12 -1 -6 26 47 228 62 411 47 557 -26 247 -92 468 -213 715
-44 89 -75 158 -70 152 33 -34 164 -251 222 -370 99 -200 146 -353 176 -564
18 -128 15 -364 -6 -437 l-12 -41 -39 11 c-36 9 -41 8 -62 -14 l-22 -24 23 19
c22 19 24 18 89 -3 66 -21 66 -21 91 -2 31 25 59 25 86 3 20 -17 20 -17 7 0
-28 36 -49 40 -90 16 -42 -23 -77 -20 -67 6 35 91 33 419 -4 589 -11 54 -35
141 -51 193 -17 51 -27 98 -23 105 4 6 3 8 -3 5 -6 -4 -23 24 -41 68 -17 41
-29 75 -27 75 6 0 39 -64 38 -71 -1 -3 4 -6 11 -6 8 0 11 8 8 19 -2 10 -8 15
-13 12 -5 -3 -9 8 -9 25 0 16 -9 58 -20 92 -10 35 -17 65 -15 67 6 6 103 -300
140 -443 39 -150 69 -309 84 -445 6 -52 13 -108 15 -125 2 -19 4 -13 5 17 6
193 -107 680 -245 1054 -89 241 -282 592 -430 786 -72 93 -200 223 -272 276
-84 62 -147 94 -241 122 -41 12 -84 32 -97 45 -13 13 -24 21 -24 16 0 -4 -6
-16 -14 -27 -10 -13 -14 -14 -13 -4 2 8 6 21 10 27 6 10 -207 13 -1017 13
l-1025 0 -22 -39z m2146 -27 c33 -21 62 -70 74 -123 8 -38 6 -49 -15 -90 -31
-57 -40 -66 -40 -42 0 11 4 17 8 15 4 -3 8 4 8 15 0 11 5 23 10 26 6 3 10 11
10 16 0 6 -13 1 -29 -10 -31 -22 -52 -28 -34 -10 9 9 8 18 -4 35 -8 13 -11 29
-7 35 4 8 3 9 -4 5 -15 -9 -16 6 -2 22 7 9 7 9 -2 2 -20 -16 -32 -11 -17 7 10
11 10 14 2 9 -7 -4 -13 -3 -13 2 0 5 11 15 25 22 31 17 23 32 -11 20 -39 -15
-63 -11 -29 5 27 12 28 13 8 14 -27 1 -30 16 -5 30 24 15 39 13 67 -5z m-35
-168 c0 5 -5 15 -12 22 -7 7 -8 12 -2 12 5 0 17 -14 26 -31 10 -17 12 -27 5
-22 -6 4 -16 8 -21 8 -5 0 -20 16 -34 35 l-25 35 31 -35 c18 -19 32 -30 32
-24z m196 -153 c9 -32 25 -69 35 -82 20 -25 25 -51 10 -51 -5 0 -11 7 -15 15
-3 8 -11 15 -18 14 -10 0 -10 -2 0 -6 24 -9 12 -19 -19 -15 -26 4 -30 8 -26
28 2 13 1 24 -3 24 -13 0 -30 -26 -23 -34 4 -4 -1 -4 -11 0 -16 6 -15 9 10 29
16 13 35 20 44 17 12 -5 11 -2 -2 12 -16 16 -20 16 -40 2 -12 -9 -27 -16 -33
-16 -5 0 -3 5 5 10 13 9 13 12 -3 21 -18 10 -16 14 19 50 21 21 42 39 46 39 4
0 15 -26 24 -57z m-77 -145 c6 -18 7 -28 2 -23 -10 12 -25 55 -18 55 3 0 10
-15 16 -32z m62 -45 c13 -16 12 -17 -3 -4 -10 7 -18 15 -18 17 0 8 8 3 21 -13z
m41 -77 c18 5 19 4 7 -9 -13 -14 -16 -13 -31 0 -10 9 -18 21 -18 27 0 6 5 3
11 -7 7 -12 17 -16 31 -11z m73 -48 c1 -19 8 -45 15 -58 11 -21 9 -20 -16 6
-54 59 -71 81 -36 50 24 -23 32 -26 32 -13 0 22 -21 67 -30 62 -4 -2 -7 3 -7
11 0 31 40 -24 42 -58z m-1642 -158 c8 -66 43 -204 62 -242 7 -16 10 -28 5
-28 -21 0 -32 35 -69 210 -9 40 -9 38 -4 -20 3 -36 14 -91 23 -122 l18 -58
-27 6 c-68 15 -64 9 -57 98 10 129 28 240 36 225 4 -8 10 -39 13 -69z m2252
-134 c37 -76 65 -140 63 -142 -2 -2 -31 50 -63 115 -33 66 -63 117 -67 115 -3
-2 -4 6 -1 18 3 17 2 19 -5 9 -8 -11 -12 -9 -23 10 -11 22 -11 23 4 10 10 -8
17 -9 17 -3 0 6 -4 14 -10 17 -5 3 -10 11 -10 18 0 21 28 -29 95 -167z m-1596
-48 c17 -50 13 -63 -22 -76 -18 -7 -36 -12 -40 -12 -11 0 -8 104 5 202 l12 89
17 -86 c10 -48 22 -101 28 -117z m915 166 c3 -8 2 -12 -4 -9 -6 3 -10 10 -10
16 0 14 7 11 14 -7z m-349 -278 c15 -70 25 -130 22 -133 -3 -2 -9 16 -12 41
-4 25 -11 43 -16 40 -5 -3 -6 1 -3 9 4 11 -21 145 -41 213 -3 10 1 5 9 -12 8
-17 27 -88 41 -158z m448 85 c20 -37 37 -72 37 -77 0 -11 -90 126 -90 138 0
23 20 1 53 -61z m-1806 -3 c-2 -13 -4 -5 -4 17 -1 22 1 32 4 23 2 -10 2 -28 0
-40z m1570 20 c-3 -8 -6 -5 -6 6 -1 11 2 17 5 13 3 -3 4 -12 1 -19z m-2829
-110 c-12 -83 -21 -243 -27 -493 -6 -203 -17 -426 -26 -495 -23 -197 -76 -564
-82 -570 -14 -14 -91 94 -121 168 -51 131 -66 225 -66 407 -1 278 53 512 187
810 36 81 146 295 151 295 1 0 -6 -55 -16 -122z m1088 75 c-10 -10 -19 5 -10
18 6 11 8 11 12 0 2 -7 1 -15 -2 -18z m1840 -95 l18 -107 -25 -20 c-39 -32
-53 -27 -45 17 3 20 9 81 13 135 3 54 9 94 14 90 4 -4 15 -56 25 -115z m-1656
52 c0 -27 39 -148 50 -155 5 -3 3 13 -5 36 -9 23 -13 44 -10 47 3 3 5 0 5 -7
0 -7 4 -10 9 -6 5 3 12 -7 14 -22 2 -16 5 5 6 45 1 78 1 79 62 62 27 -7 40
-19 49 -40 7 -17 17 -33 22 -36 5 -4 3 8 -6 24 -18 36 -19 42 -7 42 5 0 28
-37 51 -82 23 -45 53 -95 66 -111 28 -33 33 -21 5 14 -26 34 -68 122 -44 92
19 -23 91 -47 115 -38 10 4 18 -9 27 -45 19 -76 24 -54 7 31 -17 78 -14 106 4
43 11 -39 49 -116 50 -101 0 4 -7 24 -15 44 -17 41 -19 51 -6 38 6 -6 17 -37
25 -69 9 -33 21 -65 27 -70 9 -8 10 -8 5 1 -10 19 -15 94 -5 87 5 -3 9 1 9 8
0 8 3 9 8 2 8 -11 74 -44 90 -44 6 0 12 6 14 12 3 7 10 -9 16 -35 7 -26 15
-47 18 -47 3 0 2 9 -1 20 -3 11 -3 20 2 21 4 0 16 2 26 4 9 2 15 -1 11 -6 -3
-5 1 -9 10 -9 8 0 17 -6 19 -12 3 -7 6 -3 6 8 1 18 10 24 49 32 l47 11 -51 -5
-50 -5 -12 39 c-17 56 -14 63 9 20 23 -46 31 -49 19 -9 -4 17 -11 59 -15 94
l-7 64 42 11 c31 7 42 7 44 -1 2 -7 18 -52 36 -101 26 -72 30 -90 19 -97 -11
-7 -10 -9 3 -9 10 0 22 -9 28 -19 9 -18 6 -20 -37 -26 -27 -3 -68 -9 -92 -14
-37 -8 -47 -6 -64 10 -26 24 -36 15 -12 -11 18 -20 17 -20 -13 -20 -18 0 -32
-4 -32 -9 0 -18 -56 9 -95 44 -47 43 -59 46 -19 4 46 -49 95 -70 135 -59 19 6
35 10 36 10 4 0 -3 -26 -11 -38 -15 -24 1 -23 32 3 34 29 47 32 38 10 -3 -9
-3 -36 1 -60 4 -35 10 -45 24 -45 11 0 19 6 19 14 0 8 6 17 13 19 7 3 5 6 -5
6 -33 2 -18 21 17 22 19 1 43 2 53 3 11 1 18 -7 20 -21 3 -18 10 -23 30 -22
26 0 26 1 5 9 -15 6 -20 15 -16 29 6 23 19 27 26 9 3 -7 6 0 6 15 1 16 5 26
11 22 6 -3 10 -1 10 6 0 8 4 8 15 -1 8 -7 15 -18 15 -25 0 -7 8 -12 18 -11 13
1 17 -7 17 -37 0 -20 3 -37 8 -37 4 0 7 9 7 20 0 43 29 11 36 -40 14 -107 15
-184 4 -285 -12 -109 -15 -120 -52 -175 -68 -102 -130 -150 -325 -248 -98 -49
-193 -94 -212 -100 -19 -7 -32 -14 -29 -17 6 -6 244 100 317 140 24 14 45 24
46 23 2 -2 -3 -32 -11 -68 -14 -69 -10 -128 13 -172 19 -40 25 -35 7 7 -18 44
-18 158 1 210 8 22 24 46 37 54 13 8 60 51 104 97 l82 82 -24 -91 c-14 -49
-33 -111 -44 -136 -14 -33 -16 -40 -4 -26 29 37 90 149 108 198 30 80 28 47
-4 -67 -32 -112 -51 -164 -119 -308 -31 -65 -45 -86 -58 -84 -10 2 -12 1 -5
-1 18 -6 16 -15 -23 -83 -20 -35 -34 -65 -31 -67 2 -2 32 27 66 64 l63 68 -33
-60 c-18 -33 -55 -93 -81 -133 -27 -40 -41 -68 -31 -63 42 23 143 103 158 126
9 14 18 24 20 22 5 -4 -54 -153 -86 -219 -11 -23 -18 -43 -16 -45 7 -8 45 54
38 62 -4 5 -2 5 4 2 21 -12 146 145 246 310 28 46 53 81 55 79 2 -2 -3 -50
-11 -107 -25 -165 -45 -406 -47 -546 -2 -107 -5 -132 -20 -152 -10 -13 -16
-27 -13 -32 3 -5 0 -18 -6 -29 -9 -17 -17 -19 -55 -13 -43 6 -46 4 -89 -42
l-44 -48 -53 21 c-81 32 -100 34 -170 22 -101 -17 -184 -63 -266 -146 l-73
-74 0 96 c0 115 16 272 35 336 7 25 34 71 59 102 25 31 50 74 56 97 8 28 20
46 41 57 16 9 29 22 29 28 0 20 -39 61 -70 74 -16 7 -30 16 -30 20 0 4 16 31
35 59 33 48 34 51 16 61 -11 5 -27 10 -36 10 -10 0 -23 16 -32 40 -16 41 -47
60 -66 41 -18 -18 -23 -14 -57 54 -18 36 -39 70 -47 77 -8 7 -1 -11 16 -39 35
-61 56 -120 66 -184 9 -61 -9 -72 -32 -22 -13 28 -25 39 -45 41 -38 4 -119
-33 -125 -58 -6 -22 -43 -36 -68 -26 -9 3 -25 21 -36 41 -12 19 -26 35 -33 35
-15 0 -132 120 -180 184 -20 27 -43 73 -52 102 -8 30 -26 80 -38 113 l-24 59
67 -48 c62 -45 168 -91 208 -89 10 0 -7 8 -37 19 -30 10 -51 18 -47 19 5 1 -9
21 -31 46 -57 65 -107 166 -158 320 -24 74 -44 137 -44 140 0 3 14 -10 31 -30
31 -35 56 -42 28 -8 -53 63 -90 387 -47 414 7 5 23 9 36 9 16 0 22 -6 22 -22
0 -37 12 -68 24 -67 30 4 46 -2 46 -17 0 -9 -9 -18 -20 -21 -25 -7 -25 -12 3
-46 18 -24 32 -29 82 -33 33 -3 79 -3 102 1 35 5 43 11 52 37 9 24 8 34 -1 40
-10 6 -9 11 5 22 12 9 17 27 17 61 0 45 1 47 18 33 25 -22 66 -43 58 -29 -4 6
-1 11 6 11 7 1 0 8 -17 17 l-30 17 30 6 c27 5 23 8 -42 29 -64 20 -86 23 -212
19 l-140 -3 -10 42 c-12 45 -15 191 -5 217 8 22 34 20 35 -1 1 -42 56 -155 85
-173 36 -25 54 -26 25 -2 l-22 17 30 2 c21 1 31 -3 33 -15 2 -9 2 32 0 92 -4
80 -2 107 7 102 6 -4 11 -15 11 -26z m-887 -66 c4 -4 7 -92 7 -196 0 -198 -2
-205 -44 -173 -18 14 -19 24 -13 157 4 79 10 174 14 213 6 66 7 68 17 38 6
-17 14 -35 19 -39z m2201 20 c3 -8 2 -12 -4 -9 -6 3 -10 10 -10 16 0 14 7 11
14 -7z m527 -339 c45 -136 44 -134 20 -105 -31 37 -66 102 -97 177 -22 56 -27
86 -29 178 l-3 110 40 -135 c22 -74 53 -175 69 -225z m639 280 c0 -5 -5 -3
-10 5 -5 8 -10 20 -10 25 0 6 5 3 10 -5 5 -8 10 -19 10 -25z m-3243 -129 c3
-140 27 -272 74 -409 40 -115 135 -310 194 -393 25 -36 52 -79 61 -95 8 -17
18 -29 20 -26 3 3 -4 23 -15 44 -11 22 -31 77 -46 124 -15 46 -29 91 -31 99
-10 29 13 -5 26 -40 8 -19 47 -93 88 -164 41 -71 83 -154 94 -185 24 -70 55
-223 64 -321 l6 -75 -68 -13 c-135 -25 -208 -80 -269 -199 -14 -29 -28 -74
-32 -101 -4 -40 -11 -52 -39 -71 -57 -39 -96 -113 -186 -353 -5 -16 -13 -28
-17 -28 -9 0 -66 95 -87 145 -51 124 -107 375 -124 559 -9 106 -12 511 -3 502
2 -1 10 -30 18 -62 32 -125 102 -231 180 -272 39 -20 168 -32 212 -20 41 11
98 60 120 101 19 37 13 152 -9 207 -14 35 -15 35 -10 -27 8 -111 -47 -217
-134 -258 -45 -21 -71 -15 -117 28 -76 73 -145 213 -182 374 -19 80 -34 266
-35 411 0 98 11 134 23 73 4 -19 19 -36 42 -51 20 -12 38 -20 41 -18 2 3 -3
52 -11 109 -19 136 -20 129 18 129 60 0 60 1 58 190 -2 154 0 174 16 191 10
10 27 18 38 18 19 1 20 -6 22 -123z m3262 74 c0 -10 -3 -8 -9 5 -12 27 -12 43
0 25 5 -8 9 -22 9 -30z m-2711 -111 c-7 -5 -16 -9 -20 -9 -10 0 -10 56 -1 89
6 22 8 19 20 -24 12 -40 12 -49 1 -56z m2727 -21 c5 4 5 1 1 -6 -6 -10 -11
-10 -22 -1 -8 6 -14 14 -14 16 0 3 6 0 13 -6 8 -6 18 -7 22 -3z m-1417 -38
c14 0 14 -2 3 -9 -11 -7 -10 -10 4 -18 16 -9 16 -13 2 -38 l-15 -29 -15 30
c-9 17 -13 41 -9 59 3 17 7 24 9 18 3 -7 12 -13 21 -13z m-1193 -30 c3 -5 -3
-10 -15 -10 -12 0 -18 5 -15 10 3 6 10 10 15 10 5 0 12 -4 15 -10z m110 -80
c4 -6 -5 -10 -24 -8 -16 1 -27 6 -25 10 7 11 42 10 49 -2z m1112 -17 c1 -19
-1 -22 -8 -12 -11 17 -12 39 -1 39 4 0 8 -12 9 -27z m-1390 -5 c-3 -8 -6 -5
-6 6 -1 11 2 17 5 13 3 -3 4 -12 1 -19z m-1320 -210 c-3 -8 -6 -5 -6 6 -1 11
2 17 5 13 3 -3 4 -12 1 -19z m-22 -135 c-10 -92 -16 -72 -8 23 4 43 9 70 11
60 2 -10 1 -48 -3 -83z m1379 2 c5 -22 4 -26 -4 -15 -5 8 -10 24 -10 34 0 26
6 18 14 -19z m56 -147 c35 -85 91 -178 135 -220 39 -40 9 -36 -51 5 -28 19
-48 39 -46 48 2 8 0 11 -4 6 -4 -4 -20 5 -35 19 -23 22 -26 29 -16 45 9 14 9
26 -1 51 -7 18 -8 34 -3 36 5 2 0 25 -10 53 -11 27 -19 55 -18 62 0 14 6 3 49
-105z m-1443 50 c-3 -8 -6 -5 -6 6 -1 11 2 17 5 13 3 -3 4 -12 1 -19z m-10
-40 c-3 -8 -6 -5 -6 6 -1 11 2 17 5 13 3 -3 4 -12 1 -19z m1470 -350 c-3 -8
-6 -5 -6 6 -1 11 2 17 5 13 3 -3 4 -12 1 -19z m1436 -28 c-3 -11 -9 -20 -15
-20 -5 0 -4 9 2 20 6 11 12 20 14 20 2 0 2 -9 -1 -20z m-1416 -42 c-3 -8 -6
-5 -6 6 -1 11 2 17 5 13 3 -3 4 -12 1 -19z m73 -68 c9 -8 26 -27 38 -41 l23
-26 -31 -33 c-30 -32 -41 -82 -20 -95 13 -8 13 -35 1 -35 -10 0 -21 47 -41
175 -6 39 -14 81 -17 95 l-5 25 18 -25 c10 -14 25 -32 34 -40z m-52 -25 c0
-16 -2 -15 -8 5 -4 14 -8 34 -8 45 0 16 2 15 8 -5 4 -14 8 -34 8 -45z m1076
26 c3 -4 -4 -17 -17 -27 -22 -19 -22 -19 -4 2 9 11 14 24 10 27 -3 4 -4 7 0 7
3 0 8 -4 11 -9z m-2577 -43 c-3 -7 -5 -2 -5 12 0 14 2 19 5 13 2 -7 2 -19 0
-25z m10 -40 c-3 -8 -6 -5 -6 6 -1 11 2 17 5 13 3 -3 4 -12 1 -19z m1500 0
c-3 -8 -6 -5 -6 6 -1 11 2 17 5 13 3 -3 4 -12 1 -19z m-18 -140 c1 -22 -10
-28 -36 -22 -18 5 -20 10 -11 46 5 23 6 62 3 87 -5 44 -4 42 19 -24 14 -38 25
-78 25 -87z m-1472 100 c-3 -8 -6 -5 -6 6 -1 11 2 17 5 13 3 -3 4 -12 1 -19z
m2553 -2 c0 -2 -8 -10 -17 -17 -16 -13 -17 -12 -4 4 13 16 21 21 21 13z
m-1053 -38 c-3 -7 -5 -2 -5 12 0 14 2 19 5 13 2 -7 2 -19 0 -25z m1507 -49 c9
-65 70 -269 98 -322 14 -28 17 -42 9 -45 -21 -7 -42 -34 -37 -48 3 -9 -7 -15
-31 -20 -32 -6 -39 -4 -60 22 -21 27 -23 39 -23 149 0 128 19 327 30 320 4 -3
10 -28 14 -56z m-1151 36 c-3 -9 -8 -14 -10 -11 -3 3 -2 9 2 15 9 16 15 13 8
-4z m687 10 c0 -2 -16 -15 -37 -31 l-36 -27 22 30 c12 16 29 30 37 30 8 0 14
-1 14 -2z m64 -57 c-6 -21 -6 -22 12 -8 15 12 14 10 -3 -16 -42 -59 -55 -61
-32 -5 22 52 36 70 23 29z m-838 -16 c-10 -2 -22 0 -28 6 -6 6 0 7 19 4 21 -5
23 -7 9 -10z m-196 -7 c0 -8 -9 -15 -20 -15 -22 0 -27 15 -7 23 21 9 27 7 27
-8z m-205 -45 c5 -21 2 -39 -9 -55 -20 -31 -20 -41 -1 -25 9 7 25 35 37 62 11
26 24 48 28 48 3 0 14 -44 23 -97 9 -54 36 -158 60 -230 25 -73 44 -133 43
-133 -1 0 -30 27 -65 60 -36 33 -90 73 -120 88 -49 24 -67 27 -141 25 -54 -1
-109 -9 -150 -22 -35 -11 -65 -19 -66 -18 0 1 4 27 10 59 14 66 69 154 122
194 40 31 153 73 196 74 21 0 28 -6 33 -30z m215 -177 c12 -37 30 -83 40 -104
11 -20 19 -50 19 -65 0 -16 3 -45 6 -64 4 -19 2 -46 -2 -59 -8 -20 -15 -5 -50
100 -39 117 -65 278 -43 264 4 -3 18 -35 30 -72z m-1180 8 c0 -53 58 -259 99
-353 46 -105 112 -195 176 -240 l43 -31 -30 -58 c-17 -33 -36 -59 -43 -59 -6
0 -24 -13 -38 -30 -35 -38 -47 -38 -85 4 -27 30 -36 34 -66 29 -31 -5 -34 -3
-45 28 -27 86 -61 287 -60 359 l1 45 13 -60 c29 -133 104 -285 163 -329 13
-10 42 -20 65 -22 41 -3 41 -3 7 4 -53 12 -77 28 -108 75 -52 76 -83 148 -112
261 -31 122 -33 144 -31 293 1 104 1 105 44 112 4 0 7 -12 7 -28z m2500 -150
c0 -17 -4 -33 -10 -36 -6 -4 -10 8 -10 29 0 20 5 36 10 36 6 0 10 -13 10 -29z
m-2777 -771 c3 -11 2 -18 -3 -15 -4 3 -10 14 -13 25 -3 11 -2 18 3 15 4 -3 10
-14 13 -25z m447 9 c0 -11 -27 -12 -34 -1 -2 4 4 9 15 9 10 1 19 -2 19 -8z"/>
<path d="M5370 3636 c0 -2 7 -7 16 -10 8 -3 12 -2 9 4 -6 10 -25 14 -25 6z"/>
<path d="M5355 3610 c-3 -5 -1 -10 4 -10 6 0 11 5 11 10 0 6 -2 10 -4 10 -3 0
-8 -4 -11 -10z"/>
<path d="M3930 2861 c5 -11 15 -23 21 -27 6 -3 3 5 -6 20 -20 30 -30 35 -15 7z"/>
<path d="M4055 2780 c-3 -5 1 -22 10 -37 9 -16 13 -19 9 -8 -4 11 -7 28 -8 38
0 20 -2 21 -11 7z"/>
<path d="M3693 2763 c9 -2 23 -2 30 0 6 3 -1 5 -18 5 -16 0 -22 -2 -12 -5z"/>
<path d="M3858 2743 c7 -3 16 -2 19 1 4 3 -2 6 -13 5 -11 0 -14 -3 -6 -6z"/>
<path d="M4085 2690 c10 -11 20 -20 23 -20 3 0 -3 9 -13 20 -10 11 -20 20 -23
20 -3 0 3 -9 13 -20z"/>
<path d="M3491 2561 c6 -13 20 -47 30 -75 11 -28 16 -37 13 -21 -3 17 -7 37
-8 45 0 9 -11 29 -24 45 -18 23 -20 24 -11 6z"/>
<path d="M4720 2500 c-19 -26 -35 -32 -97 -36 -40 -2 -55 1 -62 13 -4 9 -23
18 -41 20 -32 3 -32 2 -18 -19 19 -29 69 -41 137 -35 43 5 61 12 84 35 16 16
25 32 20 35 -5 3 -16 -3 -23 -13z"/>
<path d="M3541 2404 c0 -11 3 -14 6 -6 3 7 2 16 -1 19 -3 4 -6 -2 -5 -13z"/>
<path d="M3551 2364 c0 -11 3 -14 6 -6 3 7 2 16 -1 19 -3 4 -6 -2 -5 -13z"/>
<path d="M3560 2330 c0 -8 5 -22 10 -30 9 -13 10 -13 10 0 0 8 -5 22 -10 30
-9 13 -10 13 -10 0z"/>
<path d="M3591 2240 c0 -8 4 -22 9 -30 12 -18 12 -2 0 25 -6 13 -9 15 -9 5z"/>
<path d="M3731 2174 c0 -11 3 -14 6 -6 3 7 2 16 -1 19 -3 4 -6 -2 -5 -13z"/>
<path d="M3631 2134 c0 -11 3 -14 6 -6 3 7 2 16 -1 19 -3 4 -6 -2 -5 -13z"/>
<path d="M3954 2128 c-4 -7 -3 -8 5 -4 6 4 20 2 29 -6 15 -12 16 -11 3 5 -16
20 -27 22 -37 5z"/>
<path d="M3956 2058 c8 -12 84 -50 94 -46 4 2 -16 15 -46 29 -29 14 -51 22
-48 17z"/>
<path d="M4306 2035 c-11 -8 -15 -15 -9 -15 6 0 16 7 23 15 16 19 11 19 -14 0z"/>
<path d="M3931 1806 c19 -26 43 -52 54 -57 11 -5 37 -20 58 -34 20 -14 37 -23
37 -21 0 3 -21 19 -47 37 -27 18 -68 53 -92 78 l-45 46 35 -49z"/>
<path d="M3990 1721 c5 -11 15 -23 21 -27 6 -3 3 5 -6 20 -20 30 -30 35 -15 7z"/>
<path d="M3601 1674 c0 -11 3 -14 6 -6 3 7 2 16 -1 19 -3 4 -6 -2 -5 -13z"/>
<path d="M4128 1673 c7 -3 16 -2 19 1 4 3 -2 6 -13 5 -11 0 -14 -3 -6 -6z"/>
<path d="M4503 1318 c-15 -20 -25 -38 -20 -38 3 0 12 11 21 25 17 26 16 35 -1
13z"/>
<path d="M4592 793 c-6 -15 -14 -41 -17 -58 -3 -16 4 -6 15 24 20 55 22 85 2
34z"/>
<path d="M4435 793 c28 -28 95 -85 95 -80 0 9 -39 45 -75 69 -16 12 -25 17
-20 11z"/>
<path d="M2942 2540 c0 -14 2 -19 5 -12 2 6 2 18 0 25 -3 6 -5 1 -5 -13z"/>
<path d="M2952 2460 c0 -19 2 -27 5 -17 2 9 2 25 0 35 -3 9 -5 1 -5 -18z"/>
<path d="M2962 2390 c0 -14 2 -19 5 -12 2 6 2 18 0 25 -3 6 -5 1 -5 -13z"/>
<path d="M2971 2344 c0 -11 3 -14 6 -6 3 7 2 16 -1 19 -3 4 -6 -2 -5 -13z"/>
<path d="M3000 2255 c0 -5 5 -17 10 -25 5 -8 10 -10 10 -5 0 6 -5 17 -10 25
-5 8 -10 11 -10 5z"/>
<path d="M3020 2205 c0 -11 49 -94 50 -84 0 4 -11 27 -25 50 -14 24 -25 40
-25 34z"/>
<path d="M3094 2077 c16 -20 30 -37 33 -37 7 0 -36 58 -49 66 -7 4 1 -9 16
-29z"/>
<path d="M3110 1608 c0 -38 -30 -92 -69 -126 -20 -18 -21 -21 -5 -13 36 17 76
80 82 127 2 24 2 44 -2 44 -3 0 -6 -15 -6 -32z"/>
<path d="M2670 1568 c0 -24 40 -130 79 -206 30 -60 109 -152 130 -152 6 0 -12
20 -38 45 -55 51 -107 143 -145 255 -14 41 -26 67 -26 58z"/>
<path d="M2975 1450 c-19 -8 -19 -9 2 -9 12 -1 25 4 28 9 7 12 -2 12 -30 0z"/>
<path d="M2930 1210 c-35 -7 -35 -7 -5 -9 17 0 37 4 45 9 17 11 11 11 -40 0z"/>
<path d="M2715 980 c-3 -6 1 -7 9 -4 18 7 21 14 7 14 -6 0 -13 -4 -16 -10z"/>
<path d="M3070 986 c0 -2 7 -6 15 -10 8 -3 15 -1 15 4 0 6 -7 10 -15 10 -8 0
-15 -2 -15 -4z"/>
<path d="M2891 624 c0 -11 3 -14 6 -6 3 7 2 16 -1 19 -3 4 -6 -2 -5 -13z"/>
<path d="M3526 1911 c-3 -4 4 -17 16 -27 21 -19 21 -19 10 2 -6 12 -8 24 -5
28 3 3 1 6 -5 6 -6 0 -13 -4 -16 -9z"/>
<path d="M3632 1525 c-1 -11 3 -38 7 -60 l9 -40 0 35 c0 19 -4 46 -8 60 -6 20
-8 21 -8 5z"/>
<path d="M6266 2547 c3 -10 9 -15 12 -12 3 3 0 11 -7 18 -10 9 -11 8 -5 -6z"/>
<path d="M5331 2144 c0 -11 3 -14 6 -6 3 7 2 16 -1 19 -3 4 -6 -2 -5 -13z"/>
<path d="M5321 2104 c0 -11 3 -14 6 -6 3 7 2 16 -1 19 -3 4 -6 -2 -5 -13z"/>
<path d="M5751 2094 c0 -11 3 -14 6 -6 3 7 2 16 -1 19 -3 4 -6 -2 -5 -13z"/>
<path d="M5311 2064 c0 -11 3 -14 6 -6 3 7 2 16 -1 19 -3 4 -6 -2 -5 -13z"/>
<path d="M5741 2034 c0 -11 3 -14 6 -6 3 7 2 16 -1 19 -3 4 -6 -2 -5 -13z"/>
<path d="M2001 1944 c0 -11 3 -14 6 -6 3 7 2 16 -1 19 -3 4 -6 -2 -5 -13z"/>
<path d="M5266 1935 c-9 -26 -7 -32 5 -12 6 10 9 21 6 23 -2 3 -7 -2 -11 -11z"/>
<path d="M1991 1874 c0 -11 3 -14 6 -6 3 7 2 16 -1 19 -3 4 -6 -2 -5 -13z"/>
<path d="M5236 1863 c-6 -14 -5 -15 5 -6 7 7 10 15 7 18 -3 3 -9 -2 -12 -12z"/>
<path d="M5702 1840 c0 -14 2 -19 5 -12 2 6 2 18 0 25 -3 6 -5 1 -5 -13z"/>
<path d="M1982 1805 c0 -16 2 -22 5 -12 2 9 2 23 0 30 -3 6 -5 -1 -5 -18z"/>
<path d="M5692 1775 c0 -16 2 -22 5 -12 2 9 2 23 0 30 -3 6 -5 -1 -5 -18z"/>
<path d="M978 1759 c-10 -5 -18 -21 -18 -34 0 -15 -6 -25 -14 -25 -18 0 -29
-33 -21 -61 4 -13 2 -25 -5 -29 -7 -4 1 -12 22 -20 18 -8 44 -22 57 -32 26
-19 61 -24 61 -8 0 21 20 9 26 -15 8 -34 24 -31 68 11 58 56 71 81 57 107 -15
28 -115 92 -167 106 -47 13 -45 13 -66 0z"/>
<path d="M6462 1710 c0 -19 2 -27 5 -17 2 9 2 25 0 35 -3 9 -5 1 -5 -18z"/>
<path d="M1974 1575 c0 -77 2 -107 3 -67 2 40 2 103 0 140 -2 37 -3 4 -3 -73z"/>
<path d="M5702 1525 c12 -24 23 -43 26 -41 4 5 -36 86 -43 86 -3 0 5 -20 17
-45z"/>
<path d="M5902 1530 c0 -14 2 -19 5 -12 2 6 2 18 0 25 -3 6 -5 1 -5 -13z"/>
<path d="M6570 1525 c13 -14 26 -25 28 -25 3 0 -5 11 -18 25 -13 14 -26 25
-28 25 -3 0 5 -11 18 -25z"/>
<path d="M6 1474 c-9 -23 -7 -194 2 -194 4 0 16 -3 27 -6 12 -3 29 2 41 13 26
22 84 112 84 130 0 16 -98 73 -126 73 -12 0 -25 -7 -28 -16z"/>
<path d="M5892 1460 c0 -14 2 -19 5 -12 2 6 2 18 0 25 -3 6 -5 1 -5 -13z"/>
<path d="M5730 1470 c0 -3 11 -37 25 -75 31 -83 130 -423 141 -480 4 -22 9
-35 11 -28 8 23 -131 505 -162 562 -8 14 -14 24 -15 21z"/>
<path d="M6216 1447 c3 -10 9 -15 12 -12 3 3 0 11 -7 18 -10 9 -11 8 -5 -6z"/>
<path d="M6771 1430 c0 -31 37 -206 38 -179 1 42 -17 148 -30 169 -4 8 -8 13
-8 10z"/>
<path d="M5882 1400 c0 -14 2 -19 5 -12 2 6 2 18 0 25 -3 6 -5 1 -5 -13z"/>
<path d="M7062 1415 c4 -4 25 -11 45 -14 27 -5 39 -12 41 -26 2 -18 1 -18 -10
-4 -7 9 -31 19 -54 22 -39 7 -42 5 -72 -37 -33 -45 -44 -117 -22 -131 6 -4 8
-10 5 -15 -3 -5 5 -10 17 -12 13 -2 22 -8 21 -14 -1 -6 10 -9 27 -6 15 2 36
-1 47 -7 15 -10 13 -10 -12 -6 -30 5 -30 5 5 -11 23 -11 36 -12 38 -5 5 15 25
14 48 -4 18 -14 17 -15 -11 -10 -28 5 -28 5 -6 -5 17 -7 28 -7 37 1 12 10 17
7 16 -11 0 -3 13 -5 29 -6 l29 -1 0 66 c0 56 -3 67 -17 68 -54 4 -70 21 -92
92 -18 60 -25 71 -44 71 -12 0 -33 3 -47 7 -14 3 -22 2 -18 -2z m25 -221 c-3
-3 -12 -4 -19 -1 -8 3 -5 6 6 6 11 1 17 -2 13 -5z"/>
<path d="M6315 1380 c9 -16 18 -30 21 -30 2 0 -2 14 -11 30 -9 17 -18 30 -21
30 -2 0 2 -13 11 -30z"/>
<path d="M1982 1375 c0 -16 2 -22 5 -12 2 9 2 23 0 30 -3 6 -5 -1 -5 -18z"/>
<path d="M6817 1342 c2 -10 13 -18 23 -19 18 -2 18 -1 -1 18 -24 24 -28 24
-22 1z"/>
<path d="M1992 1320 c0 -14 2 -19 5 -12 2 6 2 18 0 25 -3 6 -5 1 -5 -13z"/>
<path d="M6277 1255 c3 -38 9 -90 14 -115 5 -30 6 -17 2 38 -3 45 -9 97 -14
115 -4 20 -5 5 -2 -38z"/>
<path d="M6682 1280 c0 -14 2 -19 5 -12 2 6 2 18 0 25 -3 6 -5 1 -5 -13z"/>
<path d="M2001 1274 c0 -11 3 -14 6 -6 3 7 2 16 -1 19 -3 4 -6 -2 -5 -13z"/>
<path d="M6920 1261 c-13 -26 -13 -28 5 -28 8 0 15 4 15 8 0 4 3 14 6 23 9 23
-13 20 -26 -3z"/>
<path d="M6692 1230 c0 -14 2 -19 5 -12 2 6 2 18 0 25 -3 6 -5 1 -5 -13z"/>
<path d="M1641 1194 c0 -11 3 -14 6 -6 3 7 2 16 -1 19 -3 4 -6 -2 -5 -13z"/>
<path d="M6388 1188 c-17 -21 -18 -21 -18 -3 -1 11 -12 -14 -25 -55 -28 -86
-28 -83 -16 -76 4 3 14 26 21 51 7 25 24 54 37 65 14 11 23 24 21 29 -1 6 -11
1 -20 -11z"/>
<path d="M6910 1196 c0 -2 7 -7 16 -10 8 -3 12 -2 9 4 -6 10 -25 14 -25 6z"/>
<path d="M6988 1183 c7 -3 16 -2 19 1 4 3 -2 6 -13 5 -11 0 -14 -3 -6 -6z"/>
<path d="M6411 1154 c0 -11 3 -14 6 -6 3 7 2 16 -1 19 -3 4 -6 -2 -5 -13z"/>
<path d="M2046 1137 c3 -10 9 -15 12 -12 3 3 0 11 -7 18 -10 9 -11 8 -5 -6z"/>
<path d="M5948 1069 c-6 -56 -3 -92 8 -135 14 -55 14 -60 -3 -69 -37 -21 -73
-64 -73 -88 0 -15 14 -36 42 -60 l42 -37 -31 0 c-45 0 -61 -24 -40 -60 15 -24
15 -29 2 -40 -25 -21 -17 -49 30 -104 25 -29 45 -60 45 -67 0 -27 -59 -86
-118 -117 -88 -47 -92 -83 -18 -145 23 -19 56 -60 72 -91 l29 -56 297 0 298 0
5 25 c17 83 17 83 29 33 10 -43 26 -74 26 -51 0 5 -9 52 -19 104 -37 183 -41
158 39 242 49 53 70 82 70 100 0 14 -4 28 -9 31 -13 9 -1 46 15 46 21 0 17 28
-5 40 -11 5 -33 10 -50 10 -17 0 -31 3 -31 6 0 8 38 62 77 108 44 53 42 79
-10 144 -42 53 -42 54 -89 48 -41 -4 -50 -2 -63 17 -8 12 -15 16 -15 10 0 -7
10 -21 22 -33 16 -15 18 -20 7 -20 -19 0 -45 20 -52 40 -3 8 -6 -20 -6 -64
l-1 -78 -42 4 c-24 3 -53 1 -65 -3 -18 -7 -21 -13 -16 -47 10 -74 -13 -51 -26
26 -8 42 -17 93 -20 112 l-7 35 -13 -37 c-25 -76 -72 -28 -103 105 -13 57 -23
85 -27 74 -6 -16 -8 -16 -26 -3 -36 28 -36 17 -1 -15 20 -17 40 -46 45 -66 9
-30 6 -43 -21 -96 -17 -34 -32 -64 -34 -66 -9 -11 -98 56 -121 92 -24 37 -28
54 -33 157 l-5 115 -7 -76z m439 -325 c-3 -3 -12 -4 -19 -1 -8 3 -5 6 6 6 11
1 17 -2 13 -5z m303 -8 c0 -2 -8 -10 -17 -17 -16 -13 -17 -12 -4 4 13 16 21
21 21 13z m-146 -561 c5 -36 4 -46 -3 -35 -6 8 -11 30 -11 48 0 19 -4 31 -10
27 -6 -3 -7 1 -4 10 10 25 21 5 28 -50z"/>
<path d="M5432 1110 c0 -14 2 -19 5 -12 2 6 2 18 0 25 -3 6 -5 1 -5 -13z"/>
<path d="M272 1108 c7 -19 38 -22 38 -4 0 10 -9 16 -21 16 -12 0 -19 -5 -17
-12z"/>
<path d="M6573 1075 c0 -27 2 -38 4 -22 2 15 2 37 0 50 -2 12 -4 0 -4 -28z"/>
<path d="M6703 1085 c0 -22 2 -30 4 -17 2 12 2 30 0 40 -3 9 -5 -1 -4 -23z"/>
<path d="M160 1095 c-35 -18 -78 -104 -59 -116 26 -16 89 -11 96 9 3 9 12 24
18 32 7 8 15 27 19 43 5 23 3 29 -19 37 -31 12 -24 12 -55 -5z"/>
<path d="M247 1064 c-4 -4 -7 -21 -7 -38 l1 -31 20 24 c20 24 21 42 3 48 -6 2
-13 0 -17 -3z"/>
<path d="M1378 1043 c7 -3 16 -2 19 1 4 3 -2 6 -13 5 -11 0 -14 -3 -6 -6z"/>
<path d="M6441 1043 c-1 -16 40 -126 44 -121 2 2 -7 33 -20 68 -13 36 -24 60
-24 53z"/>
<path d="M980 1030 c-18 -12 -2 -12 25 0 13 6 15 9 5 9 -8 0 -22 -4 -30 -9z"/>
<path d="M1425 1030 c-3 -5 -1 -10 4 -10 6 0 11 5 11 10 0 6 -2 10 -4 10 -3 0
-8 -4 -11 -10z"/>
<path d="M6301 978 c1 -68 6 -61 11 15 2 26 0 47 -4 47 -5 0 -7 -28 -7 -62z"/>
<path d="M461 994 c0 -11 3 -14 6 -6 3 7 2 16 -1 19 -3 4 -6 -2 -5 -13z"/>
<path d="M1366 839 c-32 -93 -57 -171 -55 -174 3 -2 31 73 62 167 32 93 57
172 55 174 -2 2 -30 -73 -62 -167z"/>
<path d="M6572 980 c0 -19 2 -27 5 -17 2 9 2 25 0 35 -3 9 -5 1 -5 -18z"/>
<path d="M6591 994 c0 -11 3 -14 6 -6 3 7 2 16 -1 19 -3 4 -6 -2 -5 -13z"/>
<path d="M1491 908 c-17 -50 -29 -93 -27 -95 2 -3 16 33 31 79 15 46 32 89 38
96 6 8 6 12 -1 12 -6 0 -24 -41 -41 -92z"/>
<path d="M838 974 c-39 -21 -35 -28 5 -8 37 19 44 24 31 24 -5 -1 -21 -8 -36
-16z"/>
<path d="M1565 980 c27 -12 43 -12 25 0 -8 5 -22 9 -30 9 -10 0 -8 -3 5 -9z"/>
<path d="M477 918 c4 -40 2 -48 -16 -58 -17 -9 -25 -8 -37 5 -21 21 -41 19
-54 -5 -6 -11 -22 -23 -36 -26 -18 -5 -22 -9 -13 -14 9 -6 8 -16 -5 -44 -19
-41 -13 -76 13 -76 22 0 126 109 148 154 12 27 13 41 5 72 l-11 39 6 -47z"/>
<path d="M6610 953 c0 -6 8 -17 18 -24 16 -13 16 -13 2 6 -8 11 -16 22 -17 24
-2 2 -3 0 -3 -6z"/>
<path d="M752 920 l-43 -29 33 -33 c18 -19 23 -22 11 -8 -23 26 -30 50 -15 50
8 1 70 50 62 50 -3 0 -24 -14 -48 -30z"/>
<path d="M6571 914 c0 -11 3 -14 6 -6 3 7 2 16 -1 19 -3 4 -6 -2 -5 -13z"/>
<path d="M593 848 c-14 -18 -73 -144 -73 -156 0 -9 32 -22 57 -22 6 0 32 21
57 46 29 31 50 45 60 41 20 -8 20 -3 1 37 -9 19 -30 40 -51 49 -42 20 -39 20
-51 5z"/>
<path d="M1426 719 c-15 -44 -26 -83 -24 -85 3 -2 17 33 32 77 15 45 25 83 23
85 -2 2 -16 -32 -31 -77z"/>
<path d="M1620 748 c-30 -42 -32 -70 -6 -93 6 -5 11 -19 11 -30 0 -40 35 -27
95 36 33 35 60 70 60 79 0 16 -76 50 -112 50 -10 0 -31 -19 -48 -42z"/>
<path d="M740 706 c0 -2 8 -10 18 -17 15 -13 16 -12 3 4 -13 16 -21 21 -21 13z"/>
<path d="M886 689 c11 -13 28 -36 37 -51 10 -15 28 -35 41 -43 21 -14 27 -13
77 9 30 14 48 25 41 25 -7 1 -32 -8 -54 -19 -51 -25 -48 -25 -48 5 0 14 -5 25
-11 25 -7 0 -33 17 -58 37 -29 23 -38 28 -25 12z"/>
<path d="M726 624 c-9 -8 -16 -20 -16 -27 0 -6 -11 -23 -25 -37 -30 -31 -36
-68 -14 -83 24 -15 48 -1 65 38 8 19 18 35 23 35 13 0 34 57 27 75 -7 20 -40
19 -60 -1z"/>
<path d="M800 632 c0 -4 9 -13 20 -20 22 -13 27 -3 8 16 -14 14 -28 16 -28 4z"/>
<path d="M1430 591 c0 -4 14 -16 63 -52 l29 -22 -14 24 c-7 13 -17 27 -21 30
-5 3 -9 10 -10 14 -2 9 -47 14 -47 6z"/>
<path d="M1130 537 c-19 -7 -44 -19 -55 -26 l-20 -13 20 8 c11 4 38 11 60 16
22 6 54 14 70 18 l30 8 -35 1 c-19 0 -51 -6 -70 -12z"/>
<path d="M845 419 c-4 -6 -5 -12 -2 -15 2 -3 7 2 10 11 7 17 1 20 -8 4z"/>
<path d="M6705 369 c-4 -6 -5 -12 -2 -15 2 -3 7 2 10 11 7 17 1 20 -8 4z"/>
<path d="M814 335 c-3 -8 -4 -20 -2 -27 3 -7 7 -1 10 15 6 29 1 36 -8 12z"/>
<path d="M5601 278 c-1 -22 68 -261 79 -272 8 -8 -12 67 -59 224 -11 36 -20
57 -20 48z"/>
<path d="M1523 240 c0 -25 2 -35 4 -22 2 12 2 32 0 45 -2 12 -4 2 -4 -23z"/>
<path d="M801 243 c-1 -30 -4 -32 -58 -43 -99 -20 -129 -28 -111 -29 26 -2
162 29 171 38 5 5 7 21 4 37 l-4 29 -2 -32z"/>
<path d="M6665 209 c-4 -6 -5 -12 -2 -15 2 -3 7 2 10 11 7 17 1 20 -8 4z"/>
<path d="M545 160 c-14 -7 -8 -8 20 -3 22 3 42 7 44 9 9 8 -45 2 -64 -6z"/>
<path d="M478 143 c6 -2 18 -2 25 0 6 3 1 5 -13 5 -14 0 -19 -2 -12 -5z"/>
<path d="M428 133 c6 -2 18 -2 25 0 6 3 1 5 -13 5 -14 0 -19 -2 -12 -5z"/>
<path d="M6711 106 c0 -16 -9 -39 -18 -50 -17 -21 -17 -21 6 0 16 15 21 29 18
50 l-4 29 -2 -29z"/>
<path d="M778 103 c7 -3 16 -2 19 1 4 3 -2 6 -13 5 -11 0 -14 -3 -6 -6z"/>
<path d="M718 93 c6 -2 18 -2 25 0 6 3 1 5 -13 5 -14 0 -19 -2 -12 -5z"/>
<path d="M668 83 c6 -2 18 -2 25 0 6 3 1 5 -13 5 -14 0 -19 -2 -12 -5z"/>
<path d="M560 64 l-55 -13 49 5 c27 3 58 9 70 14 31 13 -1 10 -64 -6z"/>
<path d="M468 43 c6 -2 18 -2 25 0 6 3 1 5 -13 5 -14 0 -19 -2 -12 -5z"/>
<path d="M420 29 c0 -5 5 -7 10 -4 6 3 10 8 10 11 0 2 -4 4 -10 4 -5 0 -10 -5
-10 -11z"/>
<path d="M5793 25 c-18 -8 -33 -17 -33 -20 0 -3 23 -5 51 -5 43 0 50 3 47 17
-4 23 -26 26 -65 8z"/>
</g>
</svg>
